<svg width="1440" height="103" viewBox="0 0 1440 103" fill="none" xmlns="http://www.w3.org/2000/svg">
<g id="Vector">
<path d="M10.2066 102.369C6.95879 102.369 3.83753 100.808 1.93946 98.1511C-1.35052 93.6379 -0.338222 87.2266 4.21714 83.9367L54.2839 47.7047C58.8393 44.4147 65.2084 45.427 68.4983 49.9824C71.7883 54.5377 70.776 60.9068 66.2207 64.1968L16.1539 100.471C14.3823 101.736 12.3577 102.369 10.2066 102.369ZM60.2734 48.5483C58.7549 48.5483 57.2365 49.0122 55.9289 49.9402L5.81995 86.1722C2.48779 88.5764 1.72856 93.2583 4.13278 96.5904C5.5247 98.5307 7.80238 99.6695 10.1644 99.6695C11.725 99.6695 13.2435 99.1634 14.5089 98.2354L64.6179 62.0034C67.95 59.5992 68.7092 54.9173 66.305 51.5852C64.8288 49.6027 62.5511 48.5483 60.2734 48.5483Z" fill="#FFD3C9"/>
<path d="M27.711 56.6045C24.4632 56.6045 21.3419 55.0439 19.4439 52.3866C16.1539 47.8312 17.1662 41.4622 21.7215 38.1722L71.8305 1.94018C76.3437 -1.3498 82.7549 -0.337497 86.0449 4.21786C89.3349 8.77322 88.3226 15.1423 83.7672 18.4323L33.6583 54.6643C31.9289 55.9296 29.8621 56.6045 27.711 56.6045ZM77.7778 2.74159C76.2593 2.74159 74.7409 3.20556 73.4333 4.1335L23.3243 40.3655C19.9922 42.7697 19.233 47.4516 21.6372 50.7838C23.0291 52.724 25.3068 53.8629 27.6688 53.8629C29.2294 53.8629 30.7479 53.3567 32.0133 52.4288L82.0801 16.1968C85.4122 13.7926 86.1715 9.11066 83.7672 5.7785C82.3753 3.79607 80.0976 2.74159 77.7778 2.74159Z" fill="#FFD3C9"/>
<path d="M68.9619 102.369C65.7141 102.369 62.5928 100.808 60.6947 98.1511C57.4047 93.5957 58.417 87.2266 62.9724 83.9367L113.039 47.7047C117.595 44.4147 123.964 45.427 127.254 49.9824C130.544 54.5377 129.531 60.9068 124.976 64.1968L74.9091 100.429C73.1798 101.736 71.113 102.369 68.9619 102.369ZM119.029 48.5483C117.51 48.5483 115.992 49.0122 114.684 49.9402L64.6174 86.1722C61.2852 88.5764 60.526 93.2583 62.9302 96.5904C64.3221 98.5307 66.5998 99.6695 68.9619 99.6695C70.5225 99.6695 72.0409 99.1634 73.3063 98.2354L123.415 62.0034C126.747 59.5992 127.507 54.9173 125.102 51.5852C123.626 49.6027 121.349 48.5483 119.029 48.5483Z" fill="#FFD3C9"/>
<path d="M86.4662 56.6045C83.2184 56.6045 80.0972 55.0439 78.1991 52.3866C74.9091 47.8312 75.9214 41.4622 80.4768 38.1722L130.586 1.9402C132.779 0.337385 135.479 -0.295304 138.178 0.126488C140.877 0.548281 143.24 2.02456 144.8 4.21788C148.09 8.77324 147.078 15.1423 142.522 18.4323L92.4557 54.6643C90.6842 55.9297 88.6174 56.6045 86.4662 56.6045ZM136.533 2.7416C134.972 2.7416 133.454 3.24775 132.189 4.1757L82.1218 40.3655C78.7896 42.7697 78.0304 47.4516 80.4346 50.7838C81.8265 52.724 84.1042 53.8629 86.4662 53.8629C88.0269 53.8629 89.5453 53.3567 90.8107 52.4288L140.877 16.1968C144.21 13.7926 144.969 9.11067 142.565 5.77851C141.384 4.1757 139.654 3.12122 137.714 2.78378C137.334 2.78378 136.955 2.7416 136.533 2.7416Z" fill="#FFD3C9"/>
<path d="M127.761 102.369C124.513 102.369 121.392 100.808 119.494 98.1511C116.204 93.5957 117.216 87.2266 121.771 83.9367L171.838 47.7047C176.393 44.4147 182.762 45.427 186.052 49.9824C189.342 54.5377 188.33 60.9068 183.775 64.1968L133.708 100.471C131.979 101.736 129.912 102.369 127.761 102.369ZM177.827 48.5483C176.309 48.5483 174.791 49.0122 173.483 49.9402L123.416 86.1722C120.084 88.5764 119.325 93.2583 121.729 96.5904C123.121 98.5307 125.399 99.6695 127.761 99.6695C129.321 99.6695 130.84 99.1634 132.105 98.2354L182.214 62.0034C185.546 59.5992 186.305 54.9173 183.901 51.5852C182.425 49.6027 180.147 48.5483 177.827 48.5483Z" fill="#FFD3C9"/>
<path d="M145.265 56.6045C142.017 56.6045 138.896 55.0439 136.998 52.3866C133.708 47.8312 134.72 41.4622 139.276 38.1722L189.385 1.94018C193.94 -1.3498 200.309 -0.337497 203.599 4.21786C206.889 8.77322 205.877 15.1423 201.321 18.4323L151.255 54.6643C149.483 55.9296 147.416 56.6045 145.265 56.6045ZM195.332 2.74159C193.813 2.74159 192.295 3.20556 190.987 4.1335L140.878 40.3655C137.546 42.7697 136.787 47.4516 139.191 50.7838C140.583 52.724 142.861 53.8629 145.223 53.8629C146.784 53.8629 148.302 53.3567 149.567 52.4288L199.634 16.1968C202.966 13.7926 203.726 9.11066 201.321 5.7785C199.929 3.79607 197.652 2.74159 195.332 2.74159Z" fill="#FFD3C9"/>
<path d="M186.516 102.369C183.268 102.369 180.147 100.808 178.249 98.1511C174.959 93.5957 175.971 87.2266 180.526 83.9367L230.593 47.7047C235.149 44.4147 241.518 45.427 244.808 49.9824C248.098 54.5377 247.085 60.9068 242.53 64.1968L192.463 100.429C190.734 101.736 188.709 102.369 186.516 102.369ZM236.625 48.5483C235.106 48.5483 233.588 49.0122 232.28 49.9402L182.214 86.1722C178.881 88.5764 178.122 93.2583 180.526 96.5904C181.918 98.5307 184.196 99.6695 186.558 99.6695C188.119 99.6695 189.637 99.1634 190.903 98.2354L240.969 62.0034C244.301 59.5992 245.061 54.9173 242.656 51.5852C241.18 49.6027 238.903 48.5483 236.625 48.5483Z" fill="#FFD3C9"/>
<path d="M204.063 56.6045C200.815 56.6045 197.694 55.0439 195.796 52.3866C192.506 47.8312 193.518 41.4622 198.073 38.1722L248.182 1.94018C252.738 -1.3498 259.107 -0.337497 262.397 4.21786C265.687 8.77322 264.674 15.1423 260.119 18.4323L210.052 54.6643C208.281 55.9296 206.214 56.6045 204.063 56.6045ZM254.13 2.74159C252.611 2.74159 251.093 3.20556 249.785 4.1335L199.676 40.3655C196.344 42.7697 195.585 47.4516 197.989 50.7838C199.381 52.724 201.659 53.8629 204.021 53.8629C205.581 53.8629 207.1 53.3567 208.365 52.4288L258.432 16.1968C261.764 13.7926 262.523 9.11066 260.119 5.7785C258.727 3.79607 256.449 2.74159 254.13 2.74159Z" fill="#FFD3C9"/>
<path d="M245.314 102.369C242.066 102.369 238.945 100.808 237.046 98.1511C233.756 93.5957 234.769 87.2266 239.324 83.9367L289.391 47.7047C293.946 44.4147 300.315 45.427 303.605 49.9824C306.895 54.5377 305.883 60.9068 301.328 64.1968L251.261 100.429C249.532 101.736 247.465 102.369 245.314 102.369ZM295.38 48.5483C293.862 48.5483 292.343 49.0122 291.036 49.9402L240.969 86.1722C237.637 88.5764 236.878 93.2583 239.282 96.5904C240.674 98.5307 242.952 99.6695 245.314 99.6695C246.874 99.6695 248.393 99.1634 249.658 98.2354L299.767 62.0034C303.099 59.5992 303.858 54.9173 301.454 51.5852C299.978 49.6027 297.7 48.5483 295.38 48.5483Z" fill="#FFD3C9"/>
<path d="M262.818 56.6045C259.57 56.6045 256.449 55.0439 254.551 52.3866C251.261 47.8312 252.273 41.4622 256.829 38.1722L306.938 1.9402C309.131 0.337385 311.83 -0.295304 314.53 0.126488C317.229 0.548281 319.591 2.02456 321.152 4.21788C324.442 8.77324 323.43 15.1423 318.874 18.4323L268.807 54.6643C267.036 55.9297 264.969 56.6045 262.818 56.6045ZM312.885 2.7416C311.324 2.7416 309.806 3.24775 308.54 4.1757L258.474 40.3655C255.141 42.7697 254.382 47.4516 256.786 50.7838C258.178 52.724 260.456 53.8629 262.818 53.8629C264.379 53.8629 265.897 53.3567 267.162 52.4288L317.229 16.1968C320.561 13.7926 321.321 9.11067 318.916 5.77851C317.735 4.1757 316.006 3.12122 314.066 2.78378C313.686 2.78378 313.307 2.7416 312.885 2.7416Z" fill="#FFD3C9"/>
<path d="M304.111 102.369C300.863 102.369 297.742 100.808 295.844 98.1511C292.554 93.5957 293.566 87.2266 298.122 83.9367L348.189 47.7047C352.744 44.4147 359.113 45.427 362.403 49.9824C365.693 54.5377 364.681 60.9068 360.125 64.1968L310.058 100.429C308.329 101.736 306.262 102.369 304.111 102.369ZM354.178 48.5483C352.66 48.5483 351.141 49.0122 349.834 49.9402L299.767 86.1722C296.435 88.5764 295.675 93.2583 298.08 96.5904C299.471 98.5307 301.749 99.6695 304.111 99.6695C305.672 99.6695 307.19 99.1634 308.456 98.2354L358.565 62.0034C361.897 59.5992 362.656 54.9173 360.252 51.5852C358.776 49.6027 356.498 48.5483 354.178 48.5483Z" fill="#FFD3C9"/>
<path d="M321.616 56.6045C318.368 56.6045 315.247 55.0439 313.348 52.3866C310.059 47.8312 311.071 41.4622 315.626 38.1722L365.735 1.94018C370.29 -1.3498 376.66 -0.337497 379.95 4.21786C383.24 8.77322 382.227 15.1423 377.672 18.4323L327.605 54.6643C325.834 55.9296 323.767 56.6045 321.616 56.6045ZM371.682 2.74159C370.164 2.74159 368.646 3.20556 367.338 4.1335L317.229 40.3655C313.897 42.7697 313.138 47.4516 315.542 50.7838C316.934 52.724 319.211 53.8629 321.573 53.8629C323.134 53.8629 324.653 53.3567 325.918 52.4288L375.985 16.1968C379.317 13.7926 380.076 9.11066 377.672 5.7785C376.28 3.79607 374.002 2.74159 371.682 2.74159Z" fill="#FFD3C9"/>
<path d="M362.868 102.369C359.62 102.369 356.499 100.808 354.6 98.1511C351.31 93.5957 352.323 87.2266 356.878 83.9367L406.945 47.7047C411.5 44.4147 417.869 45.427 421.159 49.9824C424.449 54.5377 423.437 60.9068 418.882 64.1968L368.815 100.429C367.086 101.736 365.019 102.369 362.868 102.369ZM412.934 48.5483C411.416 48.5483 409.897 49.0122 408.59 49.9402L358.523 86.1722C355.191 88.5764 354.432 93.2583 356.836 96.5904C358.228 98.5307 360.506 99.6695 362.868 99.6695C364.428 99.6695 365.947 99.1634 367.212 98.2354L417.321 62.0034C420.653 59.5992 421.412 54.9173 419.008 51.5852C417.532 49.6027 415.254 48.5483 412.934 48.5483Z" fill="#FFD3C9"/>
<path d="M380.414 56.6045C377.167 56.6045 374.045 55.0439 372.147 52.3866C368.857 47.8312 369.87 41.4622 374.425 38.1722L424.492 1.94018C429.047 -1.3498 435.416 -0.337497 438.706 4.21786C441.996 8.77322 440.984 15.1423 436.428 18.4323L386.362 54.6643C384.632 55.9296 382.566 56.6045 380.414 56.6045ZM430.481 2.74159C428.963 2.74159 427.444 3.20556 426.137 4.1335L376.028 40.3655C372.696 42.7697 371.936 47.4516 374.341 50.7838C375.732 52.724 378.01 53.8629 380.372 53.8629C381.933 53.8629 383.451 53.3567 384.717 52.4288L434.784 16.1968C438.116 13.7926 438.875 9.11066 436.471 5.7785C435.079 3.79607 432.801 2.74159 430.481 2.74159Z" fill="#FFD3C9"/>
<path d="M421.665 102.369C418.417 102.369 415.296 100.808 413.398 98.1511C410.108 93.5957 411.12 87.2266 415.676 83.9367L465.743 47.7047C470.298 44.4147 476.667 45.427 479.957 49.9824C483.247 54.5377 482.235 60.9068 477.679 64.1968L427.613 100.429C425.883 101.736 423.816 102.369 421.665 102.369ZM471.732 48.5483C470.214 48.5483 468.695 49.0122 467.388 49.9402L417.321 86.1722C413.989 88.5764 413.229 93.2583 415.634 96.5904C417.026 98.5307 419.303 99.6695 421.665 99.6695C423.226 99.6695 424.744 99.1634 426.01 98.2354L476.077 62.0034C479.409 59.5992 480.168 54.9173 477.764 51.5852C476.33 49.6027 474.052 48.5483 471.732 48.5483Z" fill="#FFD3C9"/>
<path d="M439.17 56.6045C435.922 56.6045 432.801 55.0439 430.902 52.3866C427.613 47.8312 428.625 41.4622 433.18 38.1722L483.247 1.9402C485.44 0.337385 488.14 -0.295304 490.839 0.126488C493.539 0.548281 495.901 2.02456 497.461 4.21788C500.751 8.77324 499.739 15.1423 495.184 18.4323L445.117 54.6643C443.388 55.9297 441.321 56.6045 439.17 56.6045ZM489.236 2.7416C487.676 2.7416 486.157 3.24775 484.892 4.1757L434.825 40.4077C431.493 42.8119 430.734 47.4938 433.138 50.826C434.53 52.7662 436.808 53.905 439.17 53.905C440.73 53.905 442.249 53.3989 443.514 52.471L493.581 16.239C496.913 13.8348 497.672 9.15285 495.268 5.82069C494.087 4.21788 492.358 3.1634 490.417 2.82596C490.038 2.78378 489.658 2.7416 489.236 2.7416Z" fill="#FFD3C9"/>
<path d="M480.463 102.369C477.215 102.369 474.094 100.808 472.196 98.1511C468.906 93.5957 469.918 87.2266 474.474 83.9367L524.54 47.7047C529.096 44.4147 535.465 45.427 538.755 49.9824C542.045 54.5377 541.032 60.9068 536.477 64.1968L486.41 100.429C484.681 101.736 482.614 102.369 480.463 102.369ZM530.53 48.5483C529.011 48.5483 527.493 49.0122 526.185 49.9402L476.119 86.1722C472.786 88.5764 472.027 93.2583 474.431 96.5904C475.823 98.5307 478.101 99.6695 480.463 99.6695C482.024 99.6695 483.542 99.1634 484.807 98.2354L534.874 62.0034C538.206 59.5992 538.966 54.9173 536.561 51.5852C535.127 49.6027 532.85 48.5483 530.53 48.5483Z" fill="#FFD3C9"/>
<path d="M497.967 56.6045C494.72 56.6045 491.598 55.0439 489.7 52.3866C486.41 47.8312 487.423 41.4622 491.978 38.1722L542.045 1.94018C546.6 -1.3498 552.969 -0.337497 556.259 4.21786C559.549 8.77322 558.537 15.1423 553.981 18.4323L503.915 54.6643C502.185 55.9296 500.119 56.6045 497.967 56.6045ZM548.034 2.74159C546.516 2.74159 544.997 3.20556 543.69 4.1335L493.623 40.3655C490.291 42.7697 489.532 47.4516 491.936 50.7838C493.328 52.724 495.605 53.8629 497.967 53.8629C499.528 53.8629 501.046 53.3567 502.312 52.4288L552.379 16.1968C555.711 13.7926 556.47 9.11066 554.066 5.7785C552.632 3.79607 550.354 2.74159 548.034 2.74159Z" fill="#FFD3C9"/>
<path d="M539.219 102.369C535.972 102.369 532.85 100.808 530.952 98.1511C527.662 93.5957 528.675 87.2266 533.23 83.9367L583.297 47.7047C587.852 44.4147 594.221 45.427 597.511 49.9824C600.801 54.5377 599.789 60.9068 595.233 64.1968L545.167 100.429C543.437 101.736 541.371 102.369 539.219 102.369ZM589.286 48.5483C587.768 48.5483 586.249 49.0122 584.942 49.9402L534.875 86.1722C531.543 88.5764 530.784 93.2583 533.188 96.5904C534.58 98.5307 536.857 99.6695 539.219 99.6695C540.78 99.6695 542.298 99.1634 543.564 98.2354L593.631 62.0034C596.963 59.5992 597.722 54.9173 595.318 51.5852C593.884 49.6027 591.606 48.5483 589.286 48.5483Z" fill="#FFD3C9"/>
<path d="M556.766 56.6045C553.518 56.6045 550.397 55.0439 548.499 52.3866C545.209 47.8312 546.221 41.4622 550.777 38.1722L600.844 1.94018C605.399 -1.3498 611.768 -0.337497 615.058 4.21786C618.348 8.77322 617.336 15.1423 612.78 18.4323L562.713 54.6643C560.984 55.9296 558.917 56.6045 556.766 56.6045ZM606.833 2.74159C605.315 2.74159 603.796 3.20556 602.489 4.1335L552.422 40.3655C549.09 42.7697 548.33 47.4516 550.734 50.7838C552.126 52.724 554.404 53.8629 556.766 53.8629C558.327 53.8629 559.845 53.3567 561.111 52.4288L611.177 16.239C614.51 13.8347 615.269 9.15284 612.865 5.82067C611.431 3.79607 609.153 2.74159 606.833 2.74159Z" fill="#FFD3C9"/>
<path d="M598.017 102.369C594.769 102.369 591.648 100.808 589.75 98.1511C586.46 93.5957 587.472 87.2266 592.028 83.9367L642.094 47.7047C646.65 44.4147 653.019 45.427 656.309 49.9824C659.599 54.5377 658.586 60.9068 654.031 64.1968L603.964 100.429C602.235 101.736 600.168 102.369 598.017 102.369ZM648.084 48.5483C646.565 48.5483 645.047 49.0122 643.739 49.9402L593.672 86.1722C590.34 88.5764 589.581 93.2583 591.985 96.5904C593.377 98.5307 595.655 99.6695 598.017 99.6695C599.578 99.6695 601.096 99.1634 602.361 98.2354L652.428 62.0034C655.76 59.5992 656.52 54.9173 654.115 51.5852C652.681 49.6027 650.404 48.5483 648.084 48.5483Z" fill="#FFD3C9"/>
<path d="M615.521 56.6045C612.274 56.6045 609.152 55.0439 607.254 52.3866C603.964 47.8312 604.977 41.4622 609.532 38.1722L659.599 1.9402C661.792 0.337385 664.492 -0.295304 667.191 0.126488C669.891 0.548281 672.253 2.02456 673.813 4.21788C677.103 8.77324 676.091 15.1423 671.535 18.4323L621.469 54.6643C619.739 55.9297 617.673 56.6045 615.521 56.6045ZM665.588 2.7416C664.028 2.7416 662.509 3.24775 661.244 4.1757L611.177 40.3655C607.845 42.7697 607.086 47.4516 609.49 50.7838C610.882 52.724 613.159 53.8629 615.521 53.8629C617.082 53.8629 618.6 53.3567 619.866 52.4288L669.933 16.1968C673.265 13.7926 674.024 9.11067 671.62 5.77851C670.439 4.1757 668.709 3.12122 666.769 2.78378C666.39 2.78378 666.01 2.7416 665.588 2.7416Z" fill="#FFD3C9"/>
<path d="M656.815 102.369C653.567 102.369 650.446 100.808 648.548 98.1511C645.258 93.5957 646.27 87.2266 650.825 83.9367L700.892 47.7047C705.447 44.4147 711.817 45.427 715.107 49.9824C718.396 54.5377 717.384 60.9068 712.829 64.1968L662.762 100.429C661.033 101.736 658.966 102.369 656.815 102.369ZM706.882 48.5483C705.363 48.5483 703.845 49.0122 702.537 49.9402L652.47 86.1722C649.138 88.5764 648.379 93.2583 650.783 96.5904C652.175 98.5307 654.453 99.6695 656.815 99.6695C658.375 99.6695 659.894 99.1634 661.159 98.2354L711.226 62.0034C714.558 59.5992 715.317 54.9173 712.913 51.5852C711.479 49.6027 709.201 48.5483 706.882 48.5483Z" fill="#FFD3C9"/>
<path d="M674.319 56.6045C671.071 56.6045 667.95 55.0439 666.052 52.3866C662.762 47.8312 663.774 41.4622 668.33 38.1722L718.396 1.94018C722.952 -1.3498 729.321 -0.337497 732.611 4.21786C735.901 8.77322 734.889 15.1423 730.333 18.4323L680.266 54.6643C678.537 55.9296 676.47 56.6045 674.319 56.6045ZM724.386 2.74159C722.867 2.74159 721.349 3.20556 720.041 4.1335L669.975 40.3655C666.642 42.7697 665.883 47.4516 668.287 50.7838C669.679 52.724 671.957 53.8629 674.319 53.8629C675.88 53.8629 677.398 53.3567 678.664 52.4288L728.73 16.1968C732.062 13.7926 732.822 9.11066 730.418 5.7785C728.983 3.79607 726.706 2.74159 724.386 2.74159Z" fill="#FFD3C9"/>
<path d="M715.57 102.369C712.322 102.369 709.201 100.808 707.303 98.1511C704.013 93.5957 705.025 87.2266 709.581 83.9367L759.647 47.7047C764.203 44.4147 770.572 45.427 773.862 49.9824C777.152 54.5377 776.139 60.9068 771.584 64.1968L721.517 100.429C719.788 101.736 717.721 102.369 715.57 102.369ZM765.637 48.5483C764.118 48.5483 762.6 49.0122 761.292 49.9402L711.226 86.1722C707.893 88.5764 707.134 93.2583 709.538 96.5904C710.93 98.5307 713.208 99.6695 715.57 99.6695C717.131 99.6695 718.649 99.1634 719.914 98.2354L769.981 62.0034C773.313 59.5992 774.073 54.9173 771.668 51.5852C770.234 49.6027 767.957 48.5483 765.637 48.5483Z" fill="#FFD3C9"/>
<path d="M733.117 56.6045C729.869 56.6045 726.748 55.0439 724.85 52.3866C721.56 47.8312 722.572 41.4622 727.127 38.1722L777.194 1.94018C781.749 -1.3498 788.119 -0.337497 791.409 4.21786C794.699 8.77322 793.686 15.1423 789.131 18.4323L739.064 54.6643C737.335 55.9296 735.268 56.6045 733.117 56.6045ZM783.184 2.74159C781.665 2.74159 780.147 3.20556 778.839 4.1335L728.772 40.3655C725.44 42.7697 724.681 47.4516 727.085 50.7838C728.477 52.724 730.755 53.8629 733.117 53.8629C734.677 53.8629 736.196 53.3567 737.461 52.4288L787.528 16.1968C790.86 13.7926 791.619 9.11066 789.215 5.7785C787.781 3.79607 785.461 2.74159 783.184 2.74159Z" fill="#FFD3C9"/>
<path d="M774.369 102.369C771.121 102.369 768 100.808 766.102 98.1511C762.812 93.5957 763.824 87.2266 768.379 83.9367L818.446 47.7047C823.002 44.4147 829.371 45.427 832.661 49.9824C835.951 54.5377 834.938 60.9068 830.383 64.1968L780.316 100.471C778.587 101.736 776.52 102.369 774.369 102.369ZM824.436 48.5483C822.917 48.5483 821.399 49.0122 820.091 49.9402L770.024 86.1722C766.692 88.5764 765.933 93.2583 768.337 96.5904C769.729 98.5307 772.007 99.6695 774.369 99.6695C775.929 99.6695 777.448 99.1634 778.713 98.2354L828.822 62.0034C832.154 59.5992 832.914 54.9173 830.509 51.5852C829.033 49.6027 826.755 48.5483 824.436 48.5483Z" fill="#FFD3C9"/>
<path d="M791.873 56.6045C788.625 56.6045 785.504 55.0439 783.606 52.3866C780.316 47.8312 781.328 41.4622 785.884 38.1722L835.993 1.9402C838.186 0.337385 840.885 -0.295304 843.585 0.126488C846.284 0.548281 848.646 2.02456 850.207 4.21788C853.497 8.77324 852.485 15.1423 847.929 18.4323L797.863 54.6643C796.091 55.9297 794.024 56.6045 791.873 56.6045ZM841.94 2.7416C840.379 2.7416 838.861 3.24775 837.596 4.1757L787.529 40.4077C784.197 42.8119 783.437 47.4938 785.842 50.826C787.233 52.7662 789.511 53.905 791.873 53.905C793.434 53.905 794.952 53.3989 796.218 52.471L846.284 16.239C849.617 13.8348 850.376 9.15285 847.972 5.82069C846.791 4.21788 845.061 3.1634 843.121 2.82596C842.741 2.78378 842.362 2.7416 841.94 2.7416Z" fill="#FFD3C9"/>
<path d="M833.166 102.369C829.919 102.369 826.797 100.808 824.899 98.1511C821.609 93.5957 822.622 87.2266 827.177 83.9367L877.244 47.7047C881.799 44.4147 888.168 45.427 891.458 49.9824C894.748 54.5377 893.736 60.9068 889.181 64.1968L839.114 100.429C837.384 101.736 835.318 102.369 833.166 102.369ZM883.233 48.5483C881.715 48.5483 880.196 49.0122 878.889 49.9402L828.822 86.1722C825.49 88.5764 824.731 93.2583 827.135 96.5904C828.527 98.5307 830.804 99.6695 833.166 99.6695C834.727 99.6695 836.245 99.1634 837.511 98.2354L887.578 62.0034C890.91 59.5992 891.669 54.9173 889.265 51.5852C887.831 49.6027 885.553 48.5483 883.233 48.5483Z" fill="#FFD3C9"/>
<path d="M850.671 56.6045C847.423 56.6045 844.302 55.0439 842.404 52.3866C839.114 47.8312 840.126 41.4622 844.681 38.1722L894.748 1.94018C899.304 -1.3498 905.673 -0.337497 908.963 4.21786C912.253 8.77322 911.24 15.1423 906.685 18.4323L856.618 54.6643C854.889 55.9296 852.822 56.6045 850.671 56.6045ZM900.738 2.74159C899.219 2.74159 897.701 3.20556 896.393 4.1335L846.326 40.3655C842.994 42.7697 842.235 47.4516 844.639 50.7838C846.031 52.724 848.309 53.8629 850.671 53.8629C852.231 53.8629 853.75 53.3567 855.015 52.4288L905.082 16.1968C908.414 13.7926 909.174 9.11066 906.769 5.7785C905.335 3.79607 903.057 2.74159 900.738 2.74159Z" fill="#FFD3C9"/>
<path d="M891.922 102.369C888.674 102.369 885.553 100.808 883.654 98.1511C880.365 93.5957 881.377 87.2266 885.932 83.9367L935.999 47.7047C940.554 44.4147 946.923 45.427 950.213 49.9824C953.503 54.5377 952.491 60.9068 947.936 64.1968L897.869 100.429C896.14 101.736 894.073 102.369 891.922 102.369ZM941.988 48.5483C940.47 48.5483 938.951 49.0122 937.644 49.9402L887.577 86.1722C884.245 88.5764 883.486 93.2583 885.89 96.5904C887.282 98.5307 889.56 99.6695 891.922 99.6695C893.482 99.6695 895.001 99.1634 896.266 98.2354L946.333 62.0034C949.665 59.5992 950.424 54.9173 948.02 51.5852C946.586 49.6027 944.308 48.5483 941.988 48.5483Z" fill="#FFD3C9"/>
<path d="M909.468 56.6045C906.221 56.6045 903.099 55.0439 901.201 52.3866C897.911 47.8312 898.924 41.4622 903.479 38.1722L953.546 1.94018C958.101 -1.3498 964.47 -0.337497 967.76 4.21786C971.05 8.77322 970.038 15.1423 965.483 18.4323L915.416 54.6643C913.644 55.9296 911.62 56.6045 909.468 56.6045ZM959.535 2.74159C958.017 2.74159 956.498 3.20556 955.191 4.1335L905.124 40.3655C901.792 42.7697 901.033 47.4516 903.437 50.7838C904.829 52.724 907.106 53.8629 909.468 53.8629C911.029 53.8629 912.547 53.3567 913.813 52.4288L963.88 16.1968C967.212 13.7926 967.971 9.11066 965.567 5.7785C964.133 3.79607 961.813 2.74159 959.535 2.74159Z" fill="#FFD3C9"/>
<path d="M950.719 102.369C947.471 102.369 944.35 100.808 942.452 98.1511C939.162 93.5957 940.174 87.2266 944.73 83.9367L994.797 47.7047C999.352 44.4147 1005.72 45.427 1009.01 49.9824C1012.3 54.5377 1011.29 60.9068 1006.73 64.1968L956.667 100.429C954.937 101.736 952.87 102.369 950.719 102.369ZM1000.79 48.5483C999.268 48.5483 997.749 49.0122 996.441 49.9402L946.375 86.1722C943.043 88.5764 942.283 93.2583 944.688 96.5904C946.079 98.5307 948.357 99.6695 950.719 99.6695C952.28 99.6695 953.798 99.1634 955.064 98.2354L1005.13 62.0034C1008.46 59.5992 1009.22 54.9173 1006.82 51.5852C1005.38 49.6027 1003.11 48.5483 1000.79 48.5483Z" fill="#FFD3C9"/>
<path d="M968.224 56.6045C964.976 56.6045 961.854 55.0439 959.956 52.3866C956.666 47.8312 957.679 41.4622 962.234 38.1722L1012.3 1.9402C1014.49 0.337385 1017.19 -0.295304 1019.89 0.126488C1022.59 0.548281 1024.95 2.02456 1026.52 4.21788C1029.81 8.77324 1028.79 15.1423 1024.24 18.4323L974.171 54.6643C972.442 55.9297 970.375 56.6045 968.224 56.6045ZM1018.29 2.7416C1016.73 2.7416 1015.21 3.24775 1013.95 4.1757L963.879 40.4077C960.547 42.8119 959.788 47.4938 962.192 50.826C963.584 52.7662 965.862 53.905 968.224 53.905C969.784 53.905 971.303 53.3989 972.568 52.471L1022.63 16.239C1025.97 13.8348 1026.73 9.15285 1024.32 5.82069C1023.14 4.21788 1021.41 3.1634 1019.47 2.82596C1019.09 2.78378 1018.71 2.7416 1018.29 2.7416Z" fill="#FFD3C9"/>
<path d="M1009.52 102.369C1006.27 102.369 1003.15 100.808 1001.25 98.1511C997.961 93.5957 998.973 87.2266 1003.53 83.9367L1053.6 47.7047C1058.15 44.4147 1064.52 45.427 1067.81 49.9824C1071.1 54.5377 1070.09 60.9068 1065.53 64.1968L1015.47 100.429C1013.74 101.736 1011.67 102.369 1009.52 102.369ZM1059.58 48.5483C1058.07 48.5483 1056.55 49.0122 1055.24 49.9402L1005.13 86.1722C1001.8 88.5764 1001.04 93.2583 1003.44 96.5904C1004.84 98.5307 1007.11 99.6695 1009.48 99.6695C1011.04 99.6695 1012.55 99.1634 1013.82 98.2354L1063.89 62.0034C1067.22 59.5992 1067.98 54.9173 1065.57 51.5852C1064.18 49.6027 1061.9 48.5483 1059.58 48.5483Z" fill="#FFD3C9"/>
<path d="M1027.02 56.6045C1023.77 56.6045 1020.65 55.0439 1018.76 52.3866C1015.47 47.8312 1016.48 41.4622 1021.03 38.1722L1071.1 1.94018C1075.66 -1.3498 1082.02 -0.337497 1085.31 4.21786C1088.6 8.77322 1087.59 15.1423 1083.04 18.4323L1032.97 54.6643C1031.24 55.9296 1029.17 56.6045 1027.02 56.6045ZM1077.09 2.74159C1075.57 2.74159 1074.05 3.20556 1072.74 4.1335L1022.68 40.3655C1019.35 42.7697 1018.59 47.4516 1020.99 50.7838C1022.38 52.724 1024.66 53.8629 1027.02 53.8629C1028.58 53.8629 1030.1 53.3567 1031.37 52.4288L1081.48 16.239C1084.81 13.8347 1085.57 9.15284 1083.16 5.82067C1081.69 3.79607 1079.41 2.74159 1077.09 2.74159Z" fill="#FFD3C9"/>
<path d="M1068.27 102.369C1065.03 102.369 1061.9 100.808 1060.01 98.1511C1056.72 93.5957 1057.73 87.2266 1062.28 83.9367L1112.35 47.7047C1116.91 44.4147 1123.27 45.427 1126.56 49.9824C1129.85 54.5377 1128.84 60.9068 1124.29 64.1968L1074.22 100.429C1072.49 101.736 1070.42 102.369 1068.27 102.369ZM1118.34 48.5483C1116.82 48.5483 1115.3 49.0122 1114 49.9402L1063.93 86.1722C1060.6 88.5764 1059.84 93.2583 1062.24 96.5904C1063.63 98.5307 1065.91 99.6695 1068.27 99.6695C1069.83 99.6695 1071.35 99.1634 1072.62 98.2354L1122.68 62.0034C1126.02 59.5992 1126.78 54.9173 1124.37 51.5852C1122.94 49.6027 1120.66 48.5483 1118.34 48.5483Z" fill="#FFD3C9"/>
<path d="M1085.82 56.6045C1082.57 56.6045 1079.45 55.0439 1077.55 52.3866C1074.26 47.8312 1075.28 41.4622 1079.83 38.1722L1129.9 1.94018C1134.45 -1.3498 1140.82 -0.337497 1144.11 4.21786C1147.4 8.77322 1146.39 15.1423 1141.83 18.4323L1091.77 54.6643C1090 55.9296 1087.97 56.6045 1085.82 56.6045ZM1135.89 2.74159C1134.37 2.74159 1132.85 3.20556 1131.54 4.1335L1081.48 40.3655C1078.14 42.7697 1077.38 47.4516 1079.79 50.7838C1081.18 52.724 1083.46 53.8629 1085.82 53.8629C1087.38 53.8629 1088.9 53.3567 1090.16 52.4288L1140.23 16.1968C1143.56 13.7926 1144.32 9.11066 1141.92 5.7785C1140.48 3.79607 1138.16 2.74159 1135.89 2.74159Z" fill="#FFD3C9"/>
<path d="M1127.07 102.369C1123.82 102.369 1120.7 100.808 1118.8 98.1511C1115.51 93.5957 1116.53 87.2266 1121.08 83.9367L1171.15 47.7047C1175.7 44.4147 1182.07 45.427 1185.36 49.9824C1188.65 54.5377 1187.64 60.9068 1183.08 64.1968L1133.02 100.429C1131.29 101.736 1129.22 102.369 1127.07 102.369ZM1177.14 48.5483C1175.62 48.5483 1174.1 49.0122 1172.79 49.9402L1122.73 86.1722C1119.39 88.5764 1118.64 93.2583 1121.04 96.5904C1122.43 98.5307 1124.71 99.6695 1127.07 99.6695C1128.63 99.6695 1130.15 99.1634 1131.42 98.2354L1181.48 62.0034C1184.81 59.5992 1185.57 54.9173 1183.17 51.5852C1181.74 49.6027 1179.46 48.5483 1177.14 48.5483Z" fill="#FFD3C9"/>
<path d="M1144.58 56.6045C1141.33 56.6045 1138.21 55.0439 1136.31 52.3866C1133.02 47.8312 1134.03 41.4622 1138.59 38.1722L1188.65 1.9402C1190.85 0.337385 1193.55 -0.295304 1196.24 0.126488C1198.94 0.548281 1201.31 2.02456 1202.87 4.21788C1206.16 8.77324 1205.14 15.1423 1200.59 18.4323L1150.52 54.6643C1148.79 55.9297 1146.73 56.6045 1144.58 56.6045ZM1194.64 2.7416C1193.08 2.7416 1191.56 3.24775 1190.3 4.1757L1140.23 40.4077C1136.9 42.8119 1136.14 47.4938 1138.54 50.826C1139.94 52.7662 1142.21 53.905 1144.58 53.905C1146.14 53.905 1147.65 53.3989 1148.92 52.471L1198.99 16.239C1202.32 13.8348 1203.08 9.15285 1200.67 5.82069C1199.49 4.21788 1197.76 3.1634 1195.82 2.82596C1195.44 2.78378 1195.06 2.7416 1194.64 2.7416Z" fill="#FFD3C9"/>
<path d="M1185.87 102.369C1182.62 102.369 1179.5 100.808 1177.6 98.1511C1174.31 93.5957 1175.32 87.2266 1179.88 83.9367L1229.95 47.7047C1234.5 44.4147 1240.87 45.427 1244.16 49.9824C1247.45 54.5377 1246.44 60.9068 1241.88 64.1968L1191.82 100.429C1190.09 101.736 1188.02 102.369 1185.87 102.369ZM1235.94 48.5483C1234.42 48.5483 1232.9 49.0122 1231.59 49.9402L1181.52 86.1722C1178.19 88.5764 1177.43 93.2583 1179.84 96.5904C1181.23 98.5307 1183.51 99.6695 1185.87 99.6695C1187.43 99.6695 1188.95 99.1634 1190.21 98.2354L1240.28 62.0034C1243.61 59.5992 1244.37 54.9173 1241.97 51.5852C1240.53 49.6027 1238.21 48.5483 1235.94 48.5483Z" fill="#FFD3C9"/>
<path d="M1203.37 56.6045C1200.13 56.6045 1197 55.0439 1195.11 52.3866C1191.82 47.8312 1192.83 41.4622 1197.38 38.1722L1247.45 1.94018C1252.01 -1.3498 1258.37 -0.337497 1261.66 4.21786C1264.95 8.77322 1263.94 15.1423 1259.39 18.4323L1209.32 54.6643C1207.59 55.9296 1205.52 56.6045 1203.37 56.6045ZM1253.44 2.74159C1251.92 2.74159 1250.4 3.20556 1249.1 4.1335L1199.03 40.3655C1195.7 42.7697 1194.94 47.4516 1197.34 50.7838C1198.73 52.724 1201.01 53.8629 1203.37 53.8629C1204.93 53.8629 1206.45 53.3567 1207.72 52.4288L1257.78 16.1968C1261.12 13.7926 1261.88 9.11066 1259.47 5.7785C1258.04 3.79607 1255.76 2.74159 1253.44 2.74159Z" fill="#FFD3C9"/>
<path d="M1244.62 102.369C1241.38 102.369 1238.26 100.808 1236.36 98.1511C1233.07 93.5957 1234.08 87.2266 1238.64 83.9367L1288.7 47.7047C1293.26 44.4147 1299.63 45.427 1302.92 49.9824C1306.21 54.5377 1305.19 60.9068 1300.64 64.1968L1250.61 100.471C1248.84 101.736 1246.78 102.369 1244.62 102.369ZM1294.69 48.5483C1293.17 48.5483 1291.65 49.0122 1290.35 49.9402L1240.28 86.1722C1236.95 88.5764 1236.19 93.2583 1238.59 96.5904C1239.99 98.5307 1242.26 99.6695 1244.62 99.6695C1246.19 99.6695 1247.7 99.1634 1248.97 98.2354L1299.04 62.0034C1302.37 59.5992 1303.13 54.9173 1300.72 51.5852C1299.29 49.6027 1297.01 48.5483 1294.69 48.5483Z" fill="#FFD3C9"/>
<path d="M1262.17 56.6045C1258.92 56.6045 1255.8 55.0439 1253.9 52.3866C1250.61 47.8312 1251.63 41.4622 1256.18 38.1722L1306.25 1.94018C1310.8 -1.3498 1317.17 -0.337497 1320.46 4.21786C1323.75 8.77322 1322.74 15.1423 1318.19 18.4323L1268.12 54.6643C1266.35 55.9296 1264.32 56.6045 1262.17 56.6045ZM1312.24 2.74159C1310.72 2.74159 1309.2 3.20556 1307.89 4.1335L1257.79 40.3655C1254.45 42.7697 1253.69 47.4516 1256.1 50.7838C1257.49 52.724 1259.77 53.8629 1262.13 53.8629C1263.69 53.8629 1265.21 53.3567 1266.47 52.4288L1316.54 16.1968C1319.87 13.7926 1320.63 9.11066 1318.23 5.7785C1316.79 3.79607 1314.52 2.74159 1312.24 2.74159Z" fill="#FFD3C9"/>
<path d="M1303.42 102.369C1300.17 102.369 1297.05 100.808 1295.16 98.1511C1291.87 93.5957 1292.88 87.2266 1297.43 83.9367L1347.5 47.7047C1352.06 44.4147 1358.42 45.427 1361.71 49.9824C1365 54.5377 1363.99 60.9068 1359.44 64.1968L1309.37 100.429C1307.64 101.736 1305.57 102.369 1303.42 102.369ZM1353.49 48.5483C1351.97 48.5483 1350.45 49.0122 1349.15 49.9402L1299.08 86.1722C1295.75 88.5764 1294.99 93.2583 1297.39 96.5904C1298.78 98.5307 1301.06 99.6695 1303.42 99.6695C1304.98 99.6695 1306.5 99.1634 1307.77 98.2354L1357.83 62.0034C1361.17 59.5992 1361.93 54.9173 1359.52 51.5852C1358.09 49.6027 1355.81 48.5483 1353.49 48.5483Z" fill="#FFD3C9"/>
<path d="M1320.93 56.6045C1317.68 56.6045 1314.56 55.0439 1312.66 52.3866C1309.37 47.8312 1310.38 41.4622 1314.94 38.1722L1365 1.9402C1367.2 0.337385 1369.9 -0.295304 1372.6 0.126488C1375.3 0.548281 1377.66 2.02456 1379.22 4.21788C1382.51 8.77324 1381.5 15.1423 1376.94 18.4323L1326.87 54.6643C1325.15 55.9297 1323.08 56.6045 1320.93 56.6045ZM1370.99 2.7416C1369.43 2.7416 1367.91 3.24775 1366.65 4.1757L1316.58 40.4077C1313.25 42.8119 1312.49 47.4938 1314.9 50.826C1316.29 52.7662 1318.57 53.905 1320.93 53.905C1322.49 53.905 1324.01 53.3989 1325.27 52.471L1375.34 16.239C1378.67 13.8348 1379.43 9.15285 1377.03 5.82069C1375.84 4.21788 1374.12 3.1634 1372.17 2.82596C1371.8 2.78378 1371.42 2.7416 1370.99 2.7416Z" fill="#FFD3C9"/>
<path d="M1362.22 102.369C1358.97 102.369 1355.85 100.808 1353.95 98.1511C1350.66 93.5957 1351.68 87.2266 1356.23 83.9367L1406.3 47.7047C1410.85 44.4147 1417.22 45.427 1420.51 49.9824C1423.8 54.5377 1422.79 60.9068 1418.23 64.1968L1368.17 100.429C1366.44 101.736 1364.37 102.369 1362.22 102.369ZM1412.29 48.5483C1410.77 48.5483 1409.25 49.0122 1407.94 49.9402L1357.88 86.1722C1354.54 88.5764 1353.78 93.2583 1356.19 96.5904C1357.58 98.5307 1359.86 99.6695 1362.22 99.6695C1363.78 99.6695 1365.3 99.1634 1366.56 98.2354L1416.63 62.0034C1419.96 59.5992 1420.72 54.9173 1418.32 51.5852C1416.88 49.6027 1414.56 48.5483 1412.29 48.5483Z" fill="#FFD3C9"/>
<path d="M1379.72 56.6045C1376.48 56.6045 1373.36 55.0439 1371.46 52.3866C1368.17 47.8312 1369.18 41.4622 1373.74 38.1722L1423.8 1.9402C1426 0.337385 1428.69 -0.295304 1431.39 0.126488C1434.09 0.548281 1436.46 2.02456 1438.02 4.21788C1441.31 8.77324 1440.29 15.1423 1435.74 18.4323L1385.67 54.6643C1383.94 55.9297 1381.88 56.6045 1379.72 56.6045ZM1429.79 2.7416C1428.23 2.7416 1426.71 3.24775 1425.45 4.1757L1375.38 40.4077C1372.05 42.8119 1371.29 47.4938 1373.69 50.826C1375.09 52.7662 1377.36 53.905 1379.72 53.905C1381.29 53.905 1382.8 53.3989 1384.07 52.471L1434.14 16.239C1437.47 13.8348 1438.23 9.15285 1435.82 5.82069C1434.64 4.21788 1432.91 3.1634 1430.97 2.82596C1430.59 2.78378 1430.17 2.7416 1429.79 2.7416Z" fill="#FFD3C9"/>
</g>
</svg>
