<svg width="161" height="36" viewBox="0 0 161 36" fill="none" xmlns="http://www.w3.org/2000/svg">
<path d="M38.5054 26.9721C36.8063 26.1521 35.4588 24.9807 34.5214 23.4578C33.5839 21.935 33.1152 20.0607 33.1152 17.9228C33.1152 15.7557 33.5839 13.9107 34.5507 12.3585C35.5174 10.8064 36.8356 9.63495 38.564 8.78567C40.263 7.96567 42.2844 7.55566 44.5693 7.55566C47.5866 7.55566 50.018 8.14138 51.805 9.3421V13.4128C50.0473 12.1828 47.821 11.5385 45.0966 11.5385C43.0167 11.5385 41.3762 12.0657 40.1459 13.0907C38.9155 14.1157 38.3003 15.7264 38.3003 17.8935C38.3003 20.0314 38.9155 21.6128 40.1459 22.6378C41.3762 23.6628 42.9874 24.1607 45.0087 24.1607C47.7331 24.1607 50.0766 23.5164 52.0394 22.2278V26.2693C51.0726 26.9136 49.9595 27.3821 48.7291 27.7043C47.4987 28.0264 46.0926 28.1728 44.4521 28.1728C42.1965 28.1728 40.2045 27.7629 38.5054 26.9721Z" fill="#738487"/>
<path d="M53.6504 8.1709H58.5718V11.2752C59.3628 10.2209 60.476 9.43019 61.9114 8.93233C63.3468 8.43447 65.0166 8.1709 66.8621 8.1709V12.0659C64.8994 12.0659 63.2003 12.3588 61.7356 12.9738C60.3002 13.5888 59.2749 14.5259 58.7183 15.8145V27.5874H53.6211V8.1709H53.6504Z" fill="#738487"/>
<path d="M70.6696 25.4786C68.5605 23.6629 67.5059 21.1443 67.5059 17.9228C67.5059 14.7307 68.4433 12.2121 70.2888 10.3671C72.1637 8.49282 74.8001 7.58496 78.2569 7.58496C80.5125 7.58496 82.4459 8.02425 84.0571 8.87354C85.6683 9.72282 86.8694 10.9235 87.6896 12.4171C88.5099 13.9107 88.8907 15.6093 88.8907 17.5421V19.885H72.3394C72.6909 22.7843 75.2103 24.2193 79.8681 24.2193C81.0984 24.2193 82.3874 24.1021 83.6763 23.8971C84.9653 23.6921 86.1077 23.3993 87.0744 23.0186V26.9429C86.1663 27.3236 84.9653 27.6164 83.5298 27.88C82.0944 28.1436 80.659 28.2314 79.2236 28.2314C75.6497 28.1729 72.7788 27.265 70.6696 25.4786ZM84.1157 16.3707C84.0571 14.8478 83.5005 13.6471 82.4752 12.7978C81.4499 11.9485 80.0145 11.5385 78.1983 11.5385C76.4113 11.5385 75.0052 11.9778 73.9799 12.8271C72.9546 13.6764 72.4273 14.8771 72.3687 16.3414H84.1157V16.3707Z" fill="#738487"/>
<path d="M95.189 26.9136C93.6364 26.0643 92.4354 24.8636 91.5565 23.3115C90.6777 21.7593 90.2383 19.9729 90.2383 17.9229C90.2383 15.9022 90.6777 14.1157 91.5565 12.5343C92.4354 10.9822 93.6364 9.75216 95.189 8.87359C96.7416 7.99502 98.4993 7.55573 100.462 7.55573C103.655 7.55573 106.145 8.40502 107.991 10.0743V0H113.088V27.5579H108.166V25.3029C107.053 26.3279 105.911 27.0601 104.739 27.4993C103.538 27.9386 102.132 28.1729 100.491 28.1729C98.4993 28.1729 96.7416 27.7629 95.189 26.9136ZM105.588 22.9893C106.731 22.1986 107.522 21.1443 107.961 19.8265V15.9315C107.522 14.6136 106.731 13.5593 105.588 12.7686C104.446 11.9779 103.128 11.5679 101.692 11.5679C99.8468 11.5679 98.3528 12.1536 97.1517 13.3543C95.9507 14.555 95.3648 16.0779 95.3648 17.9229C95.3648 19.7972 95.9507 21.2908 97.1517 22.4622C98.3528 23.6336 99.8468 24.19 101.692 24.19C103.157 24.1608 104.446 23.78 105.588 22.9893Z" fill="#738487"/>
<path d="M117.248 26.0645C115.959 24.6588 115.314 22.7552 115.314 20.4124V8.1709H120.412V19.9145C120.412 22.7552 121.73 24.1609 124.366 24.1609C125.538 24.1609 126.622 23.8974 127.647 23.3409C128.673 22.7845 129.522 21.9645 130.225 20.8516V8.1709H135.322V27.5874H130.401V24.9516C129.493 26.0645 128.38 26.8845 127.12 27.4117C125.86 27.9388 124.513 28.2024 123.107 28.2024C120.5 28.1731 118.537 27.4702 117.248 26.0645Z" fill="#738487"/>
<path d="M137.754 8.17067H142.675V10.5135C143.73 9.51781 144.872 8.78567 146.103 8.28781C147.333 7.78995 148.769 7.55566 150.35 7.55566C152.313 7.55566 154.071 7.96567 155.623 8.81495C157.176 9.66424 158.377 10.865 159.256 12.4171C160.135 13.9692 160.574 15.7557 160.574 17.8057C160.574 19.8264 160.135 21.6128 159.256 23.1943C158.377 24.7464 157.176 25.9764 155.623 26.855C154.071 27.7336 152.313 28.1728 150.35 28.1728C148.856 28.1728 147.48 27.9678 146.161 27.5578C144.843 27.1478 143.73 26.5036 142.822 25.6836V35.4064H137.725V8.17067H137.754ZM153.661 22.4036C154.832 21.2028 155.448 19.68 155.448 17.835C155.448 15.9607 154.862 14.4671 153.661 13.2957C152.46 12.1242 150.966 11.5678 149.12 11.5678C147.655 11.5678 146.366 11.9485 145.224 12.7392C144.081 13.53 143.291 14.5842 142.851 15.9021V19.8264C143.291 21.1443 144.081 22.1985 145.224 22.9893C146.366 23.78 147.685 24.19 149.12 24.19C150.966 24.1607 152.46 23.575 153.661 22.4036Z" fill="#738487"/>
<path d="M2.97072 34.4988C2.0626 34.4988 1.12518 34.0595 0.568587 33.2688C-0.398125 31.9509 -0.105182 30.0766 1.24236 29.1102L18.1452 16.898C19.4634 15.9316 21.3383 16.2244 22.305 17.5716C23.2717 18.8894 22.9787 20.7637 21.6312 21.7302L4.72838 33.9423C4.17179 34.3231 3.55661 34.4988 2.97072 34.4988Z" fill="#D32C05"/>
<path d="M8.85939 19.0359C7.95127 19.0359 7.01385 18.5966 6.45726 17.8059C5.49055 16.488 5.78349 14.6137 7.13103 13.6473L24.0338 1.43512C25.3521 0.497972 27.2269 0.79083 28.1936 2.10869C29.1604 3.42655 28.8674 5.30084 27.5199 6.26727L10.6171 18.4794C10.0898 18.8602 9.47457 19.0359 8.85939 19.0359Z" fill="#FF3800"/>
</svg>
