<svg width="48" height="56" viewBox="0 0 48 56" fill="none" xmlns="http://www.w3.org/2000/svg">
<path d="M4.93528 56C3.42661 56 1.86927 55.2505 0.944597 53.9014C-0.661409 51.6529 -0.17474 48.455 2.06394 46.8061L30.1447 25.9698C32.3347 24.3209 35.4494 24.8206 37.0554 27.1191C38.6614 29.3676 38.1747 32.5655 35.9361 34.2144L7.85529 55.0506C6.93062 55.7002 5.90862 56 4.93528 56Z" fill="#008DA0"/>
<path d="M14.9353 30C13.4266 30 11.8693 29.2738 10.9446 27.9667C9.33859 25.7882 9.82526 22.6899 12.0639 21.0924L40.1447 0.90492C42.3347 -0.644235 45.4494 -0.160125 47.0554 2.01838C48.6614 4.19688 48.1747 7.29519 45.9361 8.89275L17.8553 29.0802C16.9793 29.7095 15.9573 30 14.9353 30Z" fill="#08B7CF"/>
</svg>
